<mxfile host="app.diagrams.net" modified="2022-06-09T02:22:43.885Z" agent="5.0 (Windows NT 10.0; Win64; x64) AppleWebKit/537.36 (KHTML, like Gecko) Chrome/102.0.5005.63 Safari/537.36 Edg/102.0.1245.33" etag="hbIcauzC5NoBYo6takoe" version="19.0.2" type="github">
  <diagram id="rz_vW5tT_aae4mnbWB3l" name="Page-1">
    <mxGraphModel dx="780" dy="1136" grid="1" gridSize="10" guides="1" tooltips="1" connect="1" arrows="1" fold="1" page="1" pageScale="1" pageWidth="827" pageHeight="1169" math="0" shadow="0">
      <root>
        <mxCell id="0" />
        <mxCell id="1" parent="0" />
        <mxCell id="KGl1C_TGcENatZIBQcbG-1" value="用户" style="rounded=0;whiteSpace=wrap;html=1;" vertex="1" parent="1">
          <mxGeometry x="40" y="370" width="120" height="60" as="geometry" />
        </mxCell>
        <mxCell id="KGl1C_TGcENatZIBQcbG-8" style="edgeStyle=orthogonalEdgeStyle;rounded=0;orthogonalLoop=1;jettySize=auto;html=1;exitX=1;exitY=0.25;exitDx=0;exitDy=0;entryX=0;entryY=0.25;entryDx=0;entryDy=0;" edge="1" parent="1" source="KGl1C_TGcENatZIBQcbG-2" target="KGl1C_TGcENatZIBQcbG-3">
          <mxGeometry relative="1" as="geometry" />
        </mxCell>
        <mxCell id="KGl1C_TGcENatZIBQcbG-22" style="edgeStyle=orthogonalEdgeStyle;rounded=0;orthogonalLoop=1;jettySize=auto;html=1;exitX=0;exitY=0.75;exitDx=0;exitDy=0;entryX=1;entryY=0.75;entryDx=0;entryDy=0;" edge="1" parent="1" source="KGl1C_TGcENatZIBQcbG-2" target="KGl1C_TGcENatZIBQcbG-1">
          <mxGeometry relative="1" as="geometry" />
        </mxCell>
        <mxCell id="KGl1C_TGcENatZIBQcbG-2" value="前端" style="rounded=0;whiteSpace=wrap;html=1;" vertex="1" parent="1">
          <mxGeometry x="250" y="370" width="120" height="60" as="geometry" />
        </mxCell>
        <mxCell id="KGl1C_TGcENatZIBQcbG-11" style="edgeStyle=orthogonalEdgeStyle;rounded=0;orthogonalLoop=1;jettySize=auto;html=1;exitX=0.75;exitY=0;exitDx=0;exitDy=0;entryX=0.75;entryY=1;entryDx=0;entryDy=0;" edge="1" parent="1" source="KGl1C_TGcENatZIBQcbG-3" target="KGl1C_TGcENatZIBQcbG-9">
          <mxGeometry relative="1" as="geometry" />
        </mxCell>
        <mxCell id="KGl1C_TGcENatZIBQcbG-12" style="edgeStyle=orthogonalEdgeStyle;rounded=0;orthogonalLoop=1;jettySize=auto;html=1;exitX=1;exitY=0.25;exitDx=0;exitDy=0;entryX=0;entryY=0.25;entryDx=0;entryDy=0;" edge="1" parent="1" source="KGl1C_TGcENatZIBQcbG-3" target="KGl1C_TGcENatZIBQcbG-4">
          <mxGeometry relative="1" as="geometry" />
        </mxCell>
        <mxCell id="KGl1C_TGcENatZIBQcbG-20" style="edgeStyle=orthogonalEdgeStyle;rounded=0;orthogonalLoop=1;jettySize=auto;html=1;exitX=0;exitY=0.75;exitDx=0;exitDy=0;entryX=1;entryY=0.75;entryDx=0;entryDy=0;" edge="1" parent="1" source="KGl1C_TGcENatZIBQcbG-3" target="KGl1C_TGcENatZIBQcbG-2">
          <mxGeometry relative="1" as="geometry" />
        </mxCell>
        <mxCell id="KGl1C_TGcENatZIBQcbG-3" value="后端" style="rounded=0;whiteSpace=wrap;html=1;" vertex="1" parent="1">
          <mxGeometry x="460" y="370" width="120" height="60" as="geometry" />
        </mxCell>
        <mxCell id="KGl1C_TGcENatZIBQcbG-14" style="edgeStyle=orthogonalEdgeStyle;rounded=0;orthogonalLoop=1;jettySize=auto;html=1;exitX=0;exitY=0.75;exitDx=0;exitDy=0;entryX=1;entryY=0.75;entryDx=0;entryDy=0;" edge="1" parent="1" source="KGl1C_TGcENatZIBQcbG-4" target="KGl1C_TGcENatZIBQcbG-3">
          <mxGeometry relative="1" as="geometry" />
        </mxCell>
        <mxCell id="KGl1C_TGcENatZIBQcbG-4" value="判题服务器" style="rounded=0;whiteSpace=wrap;html=1;" vertex="1" parent="1">
          <mxGeometry x="670" y="370" width="120" height="60" as="geometry" />
        </mxCell>
        <mxCell id="KGl1C_TGcENatZIBQcbG-5" value="" style="endArrow=classic;html=1;rounded=0;exitX=1;exitY=0.25;exitDx=0;exitDy=0;entryX=0;entryY=0.25;entryDx=0;entryDy=0;" edge="1" parent="1" source="KGl1C_TGcENatZIBQcbG-1" target="KGl1C_TGcENatZIBQcbG-2">
          <mxGeometry width="50" height="50" relative="1" as="geometry">
            <mxPoint x="370" y="600" as="sourcePoint" />
            <mxPoint x="420" y="550" as="targetPoint" />
          </mxGeometry>
        </mxCell>
        <mxCell id="KGl1C_TGcENatZIBQcbG-7" value="代码" style="text;html=1;strokeColor=none;fillColor=none;align=center;verticalAlign=middle;whiteSpace=wrap;rounded=0;" vertex="1" parent="1">
          <mxGeometry x="170" y="350" width="60" height="30" as="geometry" />
        </mxCell>
        <mxCell id="KGl1C_TGcENatZIBQcbG-9" value="数据库" style="rounded=0;whiteSpace=wrap;html=1;" vertex="1" parent="1">
          <mxGeometry x="460" y="220" width="120" height="60" as="geometry" />
        </mxCell>
        <mxCell id="KGl1C_TGcENatZIBQcbG-10" value="问题、代码" style="text;html=1;strokeColor=none;fillColor=none;align=center;verticalAlign=middle;whiteSpace=wrap;rounded=0;" vertex="1" parent="1">
          <mxGeometry x="384" y="350" width="60" height="30" as="geometry" />
        </mxCell>
        <mxCell id="KGl1C_TGcENatZIBQcbG-13" value="问题、代码" style="text;html=1;align=center;verticalAlign=middle;resizable=0;points=[];autosize=1;strokeColor=none;fillColor=none;" vertex="1" parent="1">
          <mxGeometry x="580" y="360" width="80" height="20" as="geometry" />
        </mxCell>
        <mxCell id="KGl1C_TGcENatZIBQcbG-15" value="结果" style="text;html=1;align=center;verticalAlign=middle;resizable=0;points=[];autosize=1;strokeColor=none;fillColor=none;" vertex="1" parent="1">
          <mxGeometry x="610" y="420" width="40" height="20" as="geometry" />
        </mxCell>
        <mxCell id="KGl1C_TGcENatZIBQcbG-16" value="提交" style="text;html=1;align=center;verticalAlign=middle;resizable=0;points=[];autosize=1;strokeColor=none;fillColor=none;" vertex="1" parent="1">
          <mxGeometry x="560" y="320" width="40" height="20" as="geometry" />
        </mxCell>
        <mxCell id="KGl1C_TGcENatZIBQcbG-18" value="" style="endArrow=classic;startArrow=classic;html=1;rounded=0;entryX=0.25;entryY=1;entryDx=0;entryDy=0;exitX=0.25;exitY=0;exitDx=0;exitDy=0;" edge="1" parent="1" source="KGl1C_TGcENatZIBQcbG-3" target="KGl1C_TGcENatZIBQcbG-9">
          <mxGeometry width="50" height="50" relative="1" as="geometry">
            <mxPoint x="370" y="590" as="sourcePoint" />
            <mxPoint x="420" y="540" as="targetPoint" />
          </mxGeometry>
        </mxCell>
        <mxCell id="KGl1C_TGcENatZIBQcbG-19" value="查询" style="text;html=1;align=center;verticalAlign=middle;resizable=0;points=[];autosize=1;strokeColor=none;fillColor=none;" vertex="1" parent="1">
          <mxGeometry x="444" y="320" width="40" height="20" as="geometry" />
        </mxCell>
        <mxCell id="KGl1C_TGcENatZIBQcbG-21" value="结果" style="text;html=1;align=center;verticalAlign=middle;resizable=0;points=[];autosize=1;strokeColor=none;fillColor=none;" vertex="1" parent="1">
          <mxGeometry x="394" y="420" width="40" height="20" as="geometry" />
        </mxCell>
        <mxCell id="KGl1C_TGcENatZIBQcbG-23" value="结果" style="text;html=1;align=center;verticalAlign=middle;resizable=0;points=[];autosize=1;strokeColor=none;fillColor=none;" vertex="1" parent="1">
          <mxGeometry x="180" y="420" width="40" height="20" as="geometry" />
        </mxCell>
      </root>
    </mxGraphModel>
  </diagram>
</mxfile>
